<?xml version="1.0" standalone="no"?>
<!DOCTYPE svg PUBLIC "-//W3C//DTD SVG 20010904//EN"
 "http://www.w3.org/TR/2001/REC-SVG-20010904/DTD/svg10.dtd">
<svg version="1.0" xmlns="http://www.w3.org/2000/svg"
 width="714.000000pt" height="714.000000pt" viewBox="0 0 714.000000 714.000000"
 preserveAspectRatio="xMidYMid meet">
<metadata>
Created by potrace 1.14, written by Peter Selinger 2001-2017
</metadata>
<g transform="translate(0.000000,714.000000) scale(0.100000,-0.100000)"
fill="#000000" stroke="none">
<path d="M0 3570 l0 -3280 3570 0 3570 0 0 3280 0 3280 -3570 0 -3570 0 0
-3280z m5215 2656 c123 -38 257 -150 349 -291 29 -44 74 -112 99 -151 52 -79
115 -134 244 -211 98 -59 164 -87 308 -133 185 -60 280 -120 273 -175 l-3 -28
-239 -4 c-226 -3 -245 -2 -340 21 -56 14 -141 38 -190 55 -50 17 -92 29 -94
26 -8 -7 37 -40 146 -107 199 -121 303 -201 400 -306 50 -55 92 -105 92 -110
0 -15 -21 -20 -60 -14 -52 7 -367 171 -589 306 -280 169 -244 156 -423 156
-103 0 -161 -4 -178 -13 -41 -21 -53 -61 -54 -179 l-1 -107 55 -57 c30 -31
147 -135 259 -232 366 -316 486 -455 545 -632 24 -71 30 -107 34 -217 8 -212
-30 -387 -123 -573 -105 -210 -243 -342 -610 -585 -292 -194 -445 -265 -930
-430 -93 -32 -171 -59 -173 -60 -1 -1 23 -49 55 -106 75 -139 120 -239 128
-286 11 -65 15 -71 48 -83 18 -6 120 -15 227 -20 107 -5 211 -12 230 -14 19
-3 85 -13 145 -22 61 -9 124 -23 140 -32 l30 -16 -25 -6 c-14 -3 -27 -15 -29
-25 -2 -11 -14 -35 -27 -55 -38 -55 -32 -80 34 -145 31 -32 47 -52 34 -46 -16
8 -39 9 -80 2 -31 -5 -120 -14 -197 -21 -260 -21 -248 -18 -242 -46 4 -20 2
-22 -11 -12 -8 7 -26 11 -41 10 -30 -3 -112 43 -219 125 -78 60 -123 123 -143
200 -14 52 -47 84 -96 92 l-38 7 3 62 c4 97 -14 201 -54 304 l-36 93 -222 0
c-121 0 -274 4 -339 9 l-119 8 16 -30 c20 -39 20 -85 1 -148 -8 -27 -15 -71
-15 -99 0 -66 31 -200 69 -303 18 -47 31 -103 31 -128 0 -39 3 -46 26 -54 14
-6 114 -10 222 -10 145 -1 205 -5 227 -15 28 -13 29 -13 6 -14 -36 -1 -13 -23
96 -87 51 -30 115 -75 143 -99 27 -24 71 -53 97 -65 l48 -22 -45 -18 c-25 -9
-67 -21 -95 -25 -59 -8 -86 -22 -140 -70 -37 -32 -39 -36 -22 -49 26 -20 21
-24 -30 -19 -119 10 -291 77 -413 160 -89 60 -287 217 -312 247 -9 11 -24 41
-33 65 -8 24 -22 52 -31 62 -13 15 -14 23 -3 58 14 48 -3 320 -27 436 -11 50
-14 96 -9 162 l7 91 -59 17 c-32 9 -116 33 -188 55 -170 50 -206 56 -490 80
-280 23 -311 27 -388 46 -78 20 -152 53 -251 114 -109 66 -279 135 -596 240
-264 87 -360 124 -360 141 0 28 189 94 386 135 153 31 218 62 295 140 63 64
60 69 -38 80 -76 8 -173 -2 -259 -25 -35 -10 -61 -15 -59 -11 9 14 188 97 293
136 95 35 125 54 85 54 -10 0 -63 -7 -118 -15 -119 -17 -225 -47 -409 -115
-149 -55 -187 -63 -146 -29 75 59 310 155 715 289 327 108 309 101 930 373
752 329 1093 461 1313 507 125 27 367 37 483 21 46 -7 117 -21 158 -32 40 -11
75 -18 76 -17 1 2 -21 55 -49 118 l-51 115 -3 390 c-3 395 1 472 35 600 68
253 250 489 456 590 131 64 181 76 312 71 61 -2 132 -11 160 -20z"/>
</g>
</svg>
