<?xml version="1.0" encoding="utf-8"?>
<!-- Generator: Adobe Illustrator 26.0.1, SVG Export Plug-In . SVG Version: 6.00 Build 0)  -->
<svg version="1.1" id="Layer_1" xmlns="http://www.w3.org/2000/svg" xmlns:xlink="http://www.w3.org/1999/xlink" x="0px" y="0px"
	 viewBox="0 0 714.1 656.2" style="enable-background:new 0 0 714.1 656.2;" xml:space="preserve">
<style type="text/css">
	.st0{fill:#FFFFFF;stroke:#000000;stroke-width:5;stroke-miterlimit:10;}
</style>
<path class="st0" d="M698,125c-9.3,0-22.1,1.5-37.7,1.5s-53.6-13.9-53.6-13.9s13,10.2,23,15.4s32.5,21.5,37.1,26s7.8,10.4,16,17.8
	s1.1,11.3-16.3,3.2s-38.2-19.7-51.2-27.5s-39.2-24.7-42.5-24.5s-24.7,0-34.7,0s-10.6,6.7-11.5,15.4s-1.8,18.5,2.6,23
	c19.7,20,47.4,40.5,70,62.7c20.4,20,36.9,40.7,36.9,76.3c0,75-47.7,108.3-60.1,117.6s-54,39.6-87.9,53.2s-76.8,27.6-76.8,27.6
	s1.3,1,8.2,14.5c6.5,12.7,15.8,29.9,14.9,35s1.9,6.9,8.7,8.2s30.7,1.4,36.6,1.7s38.3,4.2,45.7,6.1c1.1,0.2,2.1,0.7,3,1.3
	c0.1,0,0.1,0.1,0.2,0.1c1.3,0.5,2.5,1.2,3.6,2c1.1,0.8,2.1,1.8,2.9,2.8l-0.3,0.5c-1.2-0.3-2.4-0.5-3.7-0.6c-0.9-0.1-1.8-0.1-2.7-0.2
	c-0.5,0.7-0.7,1.6-0.8,2.4c0,2.6-3.9,7.4-5.9,10.8s-0.7,5.2,1.7,8.4c0.7,1,2.2,2.4,3.3,3.9c0.3,0.2,0.6,0.4,0.9,0.6
	c1.8,1.2,3.5,2.6,4.9,4.3c1.3,1.6,2.4,3.4,3.3,5.4l-0.5,0.3c-2.2-2.1-4.6-3.8-7.4-5c-1,1.3-3.6,2.2-8.6,2.3c-16.2,0.6-15.2,2-26,2.5
	c-8.5,0.3-20.7,1.5-25.6,2c0.5,0.8,0.9,1.6,1.2,2.5c0.4,1.3,0.6,2.7,0.6,4.1l-0.5,0.1c-1.2-1.6-2.6-3-4.2-4.1c-1.2,1.6-4.4,2.4-13-3
	c-14.5-9.1-25.2-17.9-26.3-19.5s-8-12.3-8.5-17.8s-5.2-7.7-8.2-9.8s-5.6,1.6-8-1.4s0.6-7.2,0.4-10.3s0-6.4-0.6-14.8
	S390,503.2,390,503.2s-16.6,1.7-29.1,1.7s-52-3.2-52-3.2c1.3,2.1,2.4,4.4,3.3,6.7c1.5,3.6,0.3,10-2.7,19.1c-3,9.1,3.9,35.8,8.5,46.1
	s2.7,13.4,2.6,17.8c-0.1,4.3,21.7,3.2,26.3,3.3s13.6-1.3,22.4-0.3c0.5,0.1,0.9,0.1,1.3,0.2h1.2c2.4,0.2,4.8,0.8,7,1.8
	c2.1,0.9,4.1,2.2,5.8,3.7l-0.3,0.5c-2.1-0.7-4.3-1.1-6.4-1.3c-0.2,0-0.5,0-0.7,0c0.5,1,1.2,1.8,2.1,2.5c3.8,2.9,18.8,10.8,23.7,14.3
	c4.6,3.3,9.1,9.1,13.2,10.9c1.3,0.3,2.6,0.7,3.7,1.3c1.5,0.6,3,1.5,4.3,2.5c1.3,1,2.4,2.2,3.4,3.5l-0.4,0.4
	c-1.4-0.6-2.8-1.1-4.2-1.4l-0.7-0.2c-0.4,1.2-1.8,2.2-4.7,2.9c-8.7,2-8.1,1.3-14.2,2.8s-9.1,5.8-15.5,11.2l0.4,0.3
	c2.1,1.4,3.8,3.2,5,5.5l-0.4,0.4c-2-0.8-4.2-1.3-6.3-1.7c-5.2,1.3-20.5-3.2-34.5-9.4c-19.4-8.5-35.6-24.2-47.1-32.5
	s-13-14.8-12.9-17.6s-2.8-3.2-4.3-6.7c-1.6-3.5,0-4.8,0.9-7.7s-0.9-42.9-3.9-52c-3-9.1,0-30.4,0-30.4s-30.4-8.2-43-12.6
	s-54.2-5.6-82.4-9.1s-44.2-19.1-52.9-22.6s-36.9-15.6-46.8-18.2s-49.4-15.2-58.6-20.8s35.6-17.3,56-20.8s32.5-21.7,32.5-21.7
	C64,365.2,35,377.8,35,377.8c9.5-10.4,54.6-25.6,54.6-25.6c-37.7,0-75.9,20.4-84.6,21.7s-0.9-6.5,26.5-17.8s56.8-20.4,87.6-30.4
	s164.4-74.6,227.7-93.7s105.8-0.4,105.8-0.4s-6.1-13.4-10.8-25.2s-2.6-24.7-2.6-90.2S488.5-2,538.8,0.2s65.7,48.4,77.9,63.1
	s41.9,29.3,49.7,31.7s47.1,12.8,47.7,24.5S707.4,125,698,125z"/>
</svg>
